# xmcd
#
# Track frame offsets: 
#        150
#        18487
#        36544
#        56493
#        78071
#        99947
#
# Disc length: 1581 seconds
#
# Revision: 0
# Processed by: cddbd v1.5.2PL0 Copyright (c) Steve Scherf et al.
# Submitted via: ExactAudioCopy v1.0b3
#
DISCID=3e062b06
DTITLE=Trignal - One step forward
DYEAR=2015
DGENRE=
TTITLE0=転生純愛ファイター
TTITLE1=KICKSTARTｘTRIGGER
TTITLE2=GREAT ESCAPE PARTY
TTITLE3=ESCOLTA
TTITLE4=RAINBOW
TTITLE5=MISSION
EXTD=
EXTT0=
EXTT1=
EXTT2=
EXTT3=
EXTT4=
EXTT5=
PLAYORDER=
